<svg width="17" height="10" viewBox="0 0 17 10" fill="none" xmlns="http://www.w3.org/2000/svg">
<path d="M8.89925 2.963L9.19388 2.66837L8.89925 2.963C8.67916 2.74292 8.32081 2.74292 8.10073 2.963L2.45898 8.60474C2.01278 9.05094 1.28085 9.05094 0.83465 8.60474C0.38845 8.15854 0.38845 7.42661 0.83465 6.98041L1.16525 7.31101L0.83465 6.98041L6.4764 1.33868C7.03197 0.783103 7.76625 0.499986 8.49999 0.499986C9.23372 0.499986 9.968 0.783103 10.5236 1.33867L16.1653 6.98041L15.8118 7.33397L16.1653 6.98041C16.6116 7.42661 16.6116 8.15854 16.1654 8.60474C15.7192 9.05094 14.9872 9.05094 14.541 8.60474L8.89925 2.963Z" fill="white" stroke="white"/>
</svg>
