<svg width="175" height="93" viewBox="0 0 175 93" fill="none" xmlns="http://www.w3.org/2000/svg">
<g clip-path="url(#clip0_2_15)">
<path d="M174 45.06C155.67 30.39 137.33 15.73 119 1.06C119.13 6.89 119.26 12.73 119.39 18.56H0.5V73.56H119.11C119.07 79.39 119.03 85.23 119 91.06C137.33 75.73 155.67 60.39 174 45.06Z" fill="#001BB7" stroke="white" stroke-miterlimit="10"/>
<path d="M14.76 24.07H14.97H15.13H15.34H15.87H16.03H16.73H17.06H17.35V36.54L17.31 36.87C17.23 37.29 17.13 37.63 17.02 37.9C16.12 39.37 14.87 40.05 13.25 39.95C13.22 39.98 13.2 40 13.17 39.99C12.85 40 12.58 39.99 12.35 39.95H12.06L11.53 39.91C11.37 39.86 11.22 39.83 11.08 39.83L10.75 39.75L10.42 39.67C10.09 39.58 9.80998 39.49 9.59998 39.38L9.63998 39.22C9.70998 39.04 9.77998 38.89 9.84998 38.77L9.88998 38.65L9.92998 38.53L9.96998 38.37L10.09 38.04L10.13 37.92L10.17 37.84L10.42 37.22L10.91 37.3L10.99 37.34L11.48 37.42L11.89 37.54L12.01 37.5H12.13C12.23 37.53 12.34 37.55 12.46 37.54H12.79L13.61 37.46L13.69 37.38C13.93 37.26 14.12 37.12 14.26 36.97L14.3 36.85C14.41 36.67 14.49 36.51 14.55 36.36L14.6 36V35.88V35.06V34.85V34.69V33.95V33.79V33.63V33.47V32.77V32.65V32.16V32.04V31.9V31.08V30.75V30.42V30.3V30.18V28.91V28.62V28.37V28.08V27.83V27.62V27.37V27.21V26.47V26.02V25.86V25.7V25.54V25.38V24.68V24.56V24.07H14.76Z" fill="white"/>
<path d="M30.8 30.71C31.56 32.53 31.71 34.29 31.25 36C30.78 38.04 29.59 39.31 27.68 39.81C26.02 40.23 24.56 40.02 23.29 39.19C21.72 38.1 20.88 36.63 20.79 34.8C20.61 31.05 22.17 28.81 25.47 28.07C27.86 27.98 29.64 28.86 30.8 30.71ZM23.34 34.61C23.57 36.44 24.5 37.44 26.13 37.6C27.8 37.45 28.73 36.57 28.92 34.97C29.33 32.16 28.33 30.67 25.93 30.5C23.99 30.99 23.13 32.36 23.34 34.61Z" fill="white"/>
<path d="M34.98 24.07H35.43H35.64H35.76H35.92H36.04H36.86V29.32C38.64 27.86 40.5 27.81 42.44 29.16C42.75 29.33 42.99 29.52 43.18 29.73C44.79 31.94 45.15 34.27 44.25 36.7C43.64 38.15 42.67 39.12 41.34 39.61C39.61 40.2 38.12 39.95 36.87 38.87V39.69H36.3H35.85H35.64H35.52H35.36H35.24H34.42V39.36V38.54V38.21V38.09V37.93V37.19V37.07V36.25V35.92V35.76V35.02V34.9V34.78V33.5V33.21V33.09V32.93V32.19V31.62V31.5V31.29V31.17V31V30.88V30.06V29.36V29.24V28.75V28.22V28.06V27.36V27.24V26.75V26.3V26.09V25.56V25.4V24.7V24.58V24.09H34.98V24.07ZM37.08 32.07C37.06 32.22 37.02 32.37 36.96 32.52V35.6C37.45 36.9 38.33 37.49 39.63 37.36C41.14 37.04 41.97 36.05 42.13 34.41C42.18 32 41.14 30.76 39.01 30.68C38.12 30.9 37.47 31.36 37.08 32.07Z" fill="white"/>
<path d="M12.2199 49.19H12.3399H13.0799H13.6099H13.7699H14.4699H14.5899H15.0799L15.2399 49.48L15.3199 49.56L15.4799 49.85C15.5999 50.01 15.6799 50.14 15.7299 50.26L15.8099 50.3L15.8499 50.38L16.2199 50.95L16.3799 51.2L16.5399 51.45C16.5699 51.48 16.5899 51.5 16.5799 51.53C16.7799 51.74 16.9099 51.95 16.9899 52.15C17.1699 52.36 17.3099 52.55 17.3999 52.72L17.5599 52.93L17.6799 53.18L17.7599 53.3L17.8399 53.38L17.9999 53.67L18.0799 53.75L18.3699 54.2L18.5299 54.45L18.6899 54.7L18.9799 55.11L19.0599 55.19L19.1399 55.31L19.1799 55.43L19.2599 55.55L19.3399 55.63L19.4999 55.92L19.5799 56L19.8699 56.45L19.9099 56.53L19.9899 56.65C20.0199 56.68 20.0399 56.7 20.0299 56.73C20.1699 56.88 20.2799 57.02 20.3599 57.14L20.4799 57.35L20.5599 57.51C20.6999 57.66 20.7999 57.81 20.8499 57.96L21.0099 58.21C21.0999 58.28 21.1699 58.36 21.2199 58.46L21.3799 58.71C21.5099 58.9 21.6099 59.07 21.6699 59.2C21.7099 59.23 21.7399 59.28 21.7499 59.32L21.8699 59.4L21.9099 59.52L21.9899 59.6L22.0699 59.72L22.1099 59.84C22.3199 60.07 22.4699 60.28 22.5599 60.46V60.34V60.22V60.1V59.57V59V58.88V58.67V58.55V58.39V58.27V57.45V57.1V56.77V56.2V56.08V55.87V55.75V55.59V55.47V54.65V53.95V53.83V53.34V53.18V53.06V52.24V52.08V51.96V51.2V50.67V50.5V49.8V49.68V49.19H22.7199H23.4599H23.6199H23.7799H23.9399H24.6399H24.9699H25.2599V64.9H25.0999H24.9799H24.2399H23.7099H23.5499H22.8499H22.7999H22.3099L22.1499 64.61L22.0699 64.53L22.0299 64.41C21.8199 64.18 21.6699 63.97 21.5799 63.79L21.5399 63.71C21.3299 63.44 21.1799 63.2 21.0899 63.01L20.8799 62.76L20.4699 62.14L20.4299 62.06L20.3499 61.98L20.1899 61.69C20.0699 61.53 19.9899 61.4 19.9399 61.28C19.7999 61.14 19.7099 61.02 19.6499 60.91C19.5499 60.77 19.4899 60.64 19.4399 60.54C19.3899 60.51 19.3599 60.49 19.3599 60.46L19.2799 60.38L19.2399 60.26L19.1599 60.18L19.1199 60.06C18.9799 59.92 18.8699 59.78 18.7899 59.65L18.2599 58.87L18.1799 58.66C18.0199 58.5 17.9099 58.34 17.8499 58.17C17.6499 57.96 17.5199 57.75 17.4399 57.55L17.2799 57.39L17.1999 57.18L16.9899 56.97L16.8699 56.72L16.7499 56.56C16.6299 56.4 16.5499 56.27 16.4999 56.15L16.3399 55.9C16.2899 55.87 16.2599 55.85 16.2599 55.82L15.9699 55.41C15.8399 55.22 15.7399 55.05 15.6799 54.92L15.5599 54.8L15.5199 54.68L15.3999 54.56L15.3599 54.44C15.3099 54.41 15.2799 54.39 15.2799 54.36C15.2499 54.33 15.2299 54.31 15.2399 54.28C15.0299 54.05 14.8799 53.84 14.7899 53.66V64.9H14.5999H13.8599H13.6999H13.5399H13.3799H12.6799H12.5599H12.0699V64.74V64V63.67V63.34V63.22V63.06V62.32V62.2V61.38V61.05V60.89V60.15V60.03V59.91V58.64V58.35V58.23V58.07V57.33V56.76V56.64V56.4V56.28V56.12V56V55.18V54.48V54.36V53.87V53.34V53.18V52.48V52.36V51.87V51.4V51.2V50.67V50.5V49.8V49.68V49.19H12.2199Z" fill="white"/>
<path d="M37.1 54.68L37.22 54.93C37.54 55.33 37.75 55.74 37.84 56.16C37.89 56.52 37.92 56.82 37.92 57.06V62.47C38.17 62.97 38.54 63.27 39.03 63.37L38.95 63.49C38.92 63.54 38.9 63.56 38.87 63.57L38.83 63.69L38.75 63.77C38.68 63.92 38.6 64.04 38.5 64.14C38.4 64.39 38.28 64.58 38.13 64.71C38 65 37.89 65.2 37.79 65.35C37 65.14 36.37 64.78 35.9 64.24H35.78C34.43 65.21 33.03 65.44 31.56 64.94C30.09 64.42 29.2 63.46 28.89 62.07C28.87 59.38 30.43 58.04 33.57 58.05C33.65 58.02 33.71 58.01 33.78 58.01L33.9 57.97H34.02H34.18L34.3 57.93H34.42L35.45 57.81C35.7 55.51 33.95 55.08 30.2 56.54L30.04 56.17L30 56.04L29.96 55.92L29.88 55.84L29.84 55.76L29.76 55.51C29.68 55.38 29.62 55.26 29.6 55.14C29.46 54.95 29.36 54.76 29.31 54.57L29.43 54.53L29.51 54.49L29.63 54.45L29.71 54.37H29.83C29.86 54.34 29.88 54.32 29.91 54.33C30.16 54.2 30.38 54.1 30.57 54.04L30.78 54C30.94 53.93 31.07 53.89 31.19 53.88L31.35 53.84L31.51 53.8C31.76 53.7 31.99 53.64 32.21 53.64L33.11 53.48C34.77 53.26 36.1 53.67 37.1 54.68ZM34.47 59.89H34.35H34.23C34.07 59.92 33.94 59.94 33.82 59.93L33.66 59.97H33.54C33.5 60 33.46 60.01 33.42 60.01H33.3L32.97 60.09L32.64 60.17H32.5C32.32 60.27 32.15 60.34 32.01 60.38C31.16 61.18 31.11 61.95 31.89 62.68C33.08 63.41 34.2 63.31 35.25 62.39C35.3 62.25 35.35 62.14 35.41 62.06L35.45 61.94L35.41 61.78V61.33V61.17V60.47V60.35V59.86H34.6C34.55 59.88 34.51 59.89 34.47 59.89Z" fill="white"/>
<path d="M41.3 53.57H41.75H41.91H42.61H42.94H43.23V53.73L43.31 53.85V53.97C43.41 54.17 43.48 54.35 43.52 54.5V54.62C43.6 54.77 43.66 54.92 43.68 55.07L43.72 55.19C43.79 55.36 43.83 55.51 43.84 55.64C43.96 55.89 44.04 56.1 44.09 56.3L44.13 56.55C44.23 56.76 44.3 56.95 44.34 57.12L44.38 57.33L44.5 57.58L44.58 57.87L44.62 57.95L44.66 58.07L44.74 58.48C44.82 58.62 44.86 58.74 44.86 58.85L45.07 59.38V59.5L45.15 59.62L45.19 59.91C45.22 59.95 45.23 59.99 45.23 60.03L45.31 60.19L45.39 60.52C45.42 60.55 45.44 60.57 45.43 60.6C45.48 60.83 45.57 61.02 45.68 61.17L45.76 60.84L45.8 60.68L45.84 60.56L45.88 60.44L45.92 60.32L45.96 60.16L46.08 59.87L46.29 59.13L46.37 58.88L46.45 58.63L46.66 58.06C46.71 57.8 46.78 57.58 46.87 57.4L47.03 56.83L47.07 56.67L47.15 56.55L47.23 56.26L47.27 56.18L47.43 55.52L47.51 55.4V55.3L47.55 55.22L47.76 54.56L47.8 54.44L47.84 54.28C47.94 54.03 48.01 53.81 48.05 53.62L48.26 53.58H48.83H49.28H49.49H49.61H49.77H49.89H50.71L50.63 53.91C50.57 54.04 50.53 54.15 50.51 54.24L50.35 54.73L50.31 54.89L50.27 55.01L50.23 55.17L50.11 55.46L49.9 56.2C49.82 56.35 49.77 56.5 49.74 56.65L49.53 57.35L49.49 57.47L49.45 57.59L49.41 57.67C49.33 57.98 49.25 58.23 49.16 58.41L49.08 58.7L49.04 58.82L49 58.98L48.96 59.1L48.92 59.22L48.88 59.34L48.84 59.5L48.51 60.53L48.47 60.61C48.39 60.92 48.31 61.17 48.22 61.35L48.18 61.6L48.1 61.72L48.06 61.97L47.98 62.22L47.94 62.34L47.73 62.87L47.69 63.12L47.65 63.24L47.44 63.81L47.15 64.71H47H46.88H46.14H45.61H45.45H44.75H44.63H44.14L44.06 64.38C43.98 64.23 43.92 64.08 43.9 63.93L43.86 63.81C43.82 63.67 43.78 63.56 43.74 63.48V63.36L43.62 63.07V62.95C43.55 62.84 43.51 62.73 43.5 62.62L43.42 62.33C43.3 62.06 43.22 61.83 43.17 61.63L43.09 61.3C43.06 61.26 43.05 61.22 43.05 61.18L42.8 60.52V60.4C42.7 60.22 42.65 60.04 42.64 59.87C42.61 59.83 42.6 59.79 42.6 59.75C42.5 59.56 42.44 59.39 42.39 59.26L42.35 58.97C42.31 58.89 42.28 58.81 42.27 58.72C42.24 58.68 42.23 58.64 42.23 58.6C42.2 58.57 42.18 58.55 42.19 58.52C42.04 58.15 41.94 57.84 41.9 57.58C41.86 57.5 41.83 57.44 41.82 57.37L41.74 57.21L41.58 56.55L41.5 56.39L41.34 55.82L41.26 55.66L41.22 55.5C41.18 55.36 41.14 55.25 41.1 55.17V55.01C41.07 54.97 41.06 54.93 41.06 54.89C40.96 54.7 40.9 54.53 40.85 54.4V54.28C40.73 54.03 40.66 53.8 40.64 53.58H41.3V53.57Z" fill="white"/>
<path d="M55.69 50.46C55.72 51.09 55.54 51.59 55.16 51.98C54.09 52.5 53.31 52.29 52.82 51.36C52.54 50.31 52.9 49.63 53.89 49.31C54.81 49.27 55.41 49.66 55.69 50.46ZM53.1 53.74H53.63H53.79H53.95H54.11H54.81H55.14H55.43V64.94H55.27H54.74H54.58H54.42H54.26H53.56H53.44H52.95V64.82V64.61V64.49V64.33V64.2V63.38V63.09V62.93V62.72V62.56V62.35V61.82V61.66V60.96V60.84V60.35V60.06V59.77V59.52V59.23V58.98V58.7V58.45V57.75V57.5V57.29V57.04V56.9V56.16V55.71V55.55V55.39V55.23V55.07V54.37V54.25V53.76H53.1V53.74Z" fill="white"/>
<path d="M65.75 54.52V54.4V54.28V53.75H66.32H66.77H66.98H67.1H67.26H67.38H68.2V65.15L68.16 65.6L68.12 65.68L68.08 65.93L67.92 66.42L67.88 66.5L67.84 66.58L67.8 66.66L67.64 66.91C67.44 67.26 67.21 67.53 66.94 67.73L66.78 67.94L66.7 67.98L65.92 68.35C63.34 68.98 61.05 68.73 59.03 67.57L59.11 67.41L59.32 66.96L59.48 66.55L59.52 66.43L59.6 66.27C59.68 66.06 59.76 65.9 59.85 65.78L59.93 65.49C61.99 66.55 63.81 66.6 65.39 65.65L65.43 65.53C65.59 65.29 65.7 65.06 65.76 64.83V64.67V64.55V64.34V64.2V64.04V63.92V63.1C64.47 64.06 63.11 64.32 61.7 63.88C60.19 63.28 59.23 62.27 58.83 60.84C58.27 59.04 58.39 57.41 59.2 55.96C59.97 54.53 61.09 53.71 62.56 53.5C63.81 53.46 64.88 53.81 65.75 54.52ZM63.12 55.95H62.96L62.06 56.28C61.27 57.18 60.94 58.16 61.08 59.23C61.26 60.78 62.08 61.59 63.54 61.65C65.09 61.45 65.82 60.45 65.71 58.66C65.67 56.85 64.83 55.93 63.21 55.91C63.18 55.95 63.15 55.96 63.12 55.95Z" fill="white"/>
<path d="M78.85 54.68L78.97 54.93C79.29 55.33 79.5 55.74 79.59 56.16C79.64 56.52 79.67 56.82 79.67 57.06V62.47C79.92 62.97 80.29 63.27 80.78 63.37L80.7 63.5C80.67 63.55 80.65 63.57 80.62 63.58L80.58 63.7L80.5 63.78C80.43 63.93 80.35 64.05 80.25 64.15C80.15 64.4 80.03 64.59 79.88 64.72C79.76 64.99 79.65 65.19 79.55 65.34C78.76 65.13 78.13 64.77 77.66 64.23H77.54C76.19 65.2 74.79 65.43 73.32 64.93C71.85 64.41 70.96 63.45 70.65 62.06C70.63 59.37 72.19 58.03 75.33 58.04C75.4 58.02 75.47 58 75.53 58L75.65 57.96H75.77H75.93L76.05 57.92H76.17L77.2 57.8C77.45 55.5 75.7 55.07 71.95 56.53L71.79 56.16L71.75 56.04L71.71 55.92L71.63 55.84L71.59 55.76L71.51 55.51C71.43 55.38 71.37 55.26 71.35 55.14C71.21 54.95 71.11 54.76 71.06 54.57L71.18 54.53L71.26 54.49L71.38 54.45L71.46 54.37H71.58C71.61 54.34 71.63 54.32 71.66 54.33C71.91 54.2 72.13 54.1 72.32 54.04L72.53 54C72.69 53.93 72.82 53.89 72.94 53.88L73.1 53.84L73.26 53.8C73.51 53.7 73.74 53.64 73.96 53.64L74.86 53.48C76.53 53.26 77.85 53.67 78.85 54.68ZM76.23 59.89H76.1H75.98C75.82 59.92 75.69 59.94 75.57 59.93L75.41 59.97H75.29C75.25 60 75.21 60.01 75.17 60.01H75.05L74.72 60.09L74.39 60.17H74.27C74.09 60.27 73.92 60.34 73.78 60.38C72.93 61.18 72.88 61.95 73.66 62.68C74.85 63.41 75.97 63.31 77.02 62.39C77.07 62.25 77.12 62.14 77.18 62.06L77.22 61.94L77.18 61.78V61.33V61.17V60.47V60.35V59.86H76.36C76.31 59.88 76.27 59.89 76.23 59.89Z" fill="white"/>
<path d="M87.16 49.43V53.7H87.37H87.53H87.74H87.9H88.11H88.64H88.8H89.5H89.83H90.12V55.83H89.9H89.74H89.53H89.37H89.16H88.63H88.47H87.77H87.65H87.16V61.33C87.15 61.69 87.16 61.99 87.2 62.23C87.85 62.82 88.72 62.92 89.83 62.52L89.87 62.64V62.89C89.91 63.05 89.92 63.2 89.91 63.34C89.96 63.5 89.99 63.63 89.99 63.75L90.11 64.78C87.57 65.41 85.86 65.09 84.98 63.8L84.94 63.72L84.86 63.47C84.78 63.28 84.72 63.11 84.7 62.98V62.86C84.66 62.49 84.65 62.19 84.66 61.96V61.14V60.89V60.77V60.61V60.49V60.28V60.16V60V59.88V59.06V58.9V58.7V58.58V57.84V57.31V57.15V56.45V56.33V55.84H84.5H84.34H84.18H84H83.3H83.18H82.69V55.27V55.15V54.94V54.8V54.64V54.52V53.7H82.85H83.01H83.17H83.33H84.03H84.36H84.65V53.45V53.29V52.55V52.1V51.94V51.78V51.62V51.46V50.76V50.64V50.15L84.81 50.07L84.97 50.03L85.13 49.99L85.25 49.91L85.46 49.87C85.5 49.84 85.54 49.83 85.58 49.83C85.62 49.8 85.66 49.79 85.7 49.79C85.74 49.76 85.78 49.75 85.82 49.75L85.94 49.67L86.27 49.59C86.3 49.56 86.32 49.54 86.35 49.55C86.38 49.52 86.4 49.5 86.43 49.51L87.05 49.26C87.13 49.29 87.16 49.36 87.16 49.43Z" fill="white"/>
<path d="M102.21 55.91C102.97 57.73 103.12 59.49 102.66 61.2C102.19 63.24 101 64.51 99.09 65.01C97.43 65.43 95.97 65.22 94.7 64.39C93.13 63.3 92.29 61.83 92.2 60C92.02 56.25 93.58 54.01 96.88 53.27C99.27 53.18 101.05 54.06 102.21 55.91ZM94.74 59.81C94.97 61.64 95.9 62.64 97.53 62.8C99.2 62.65 100.13 61.77 100.32 60.17C100.73 57.36 99.73 55.87 97.33 55.7C95.4 56.19 94.54 57.56 94.74 59.81Z" fill="white"/>
<path d="M111.81 53.45V56.08C110.27 55.98 109.18 56.54 108.53 57.76L108.41 58.42L108.37 58.71V64.86H108.21H107.68H107.52H107.36H107.2H106.5H106.38H105.89V64.74V64.53V64.4V64.24V64.12V63.3V63.01V62.19V61.86V61.53V61.2V60.87V60.05V59.93V59.81V58.54V58.25V58V57.71V57.46V57.25V57V56.84V56.1V55.65V55.5V55.34V55.18V55.02V54.32V54.2V53.7H106.05H106.58H106.74H106.9H107.06H107.76H107.88H108.37V54.15C108.36 54.4 108.37 54.62 108.41 54.81C109.2 53.91 110.16 53.46 111.28 53.46H111.81V53.45Z" fill="white"/>
</g>
<defs>
<clipPath id="clip0_2_15">
<rect width="174.79" height="92.13" fill="white"/>
</clipPath>
</defs>
</svg>
